<svg xmlns="http://www.w3.org/2000/svg" viewBox="0 0 2400 1400" width="2400" height="1400" role="img" preserveAspectRatio="xMidYMid slice">
<!-- PLACEHOLDER ART — generated by scripts/generate-placeholder-plates.mjs.
     Replace with real client photography before launch. -->
<defs>
  <radialGradient id="key" cx="20%" cy="22%" r="72%">
    <stop offset="0" stop-color="#FF5C3D" stop-opacity="0.22"/>
    <stop offset="0.45" stop-color="#FF5C3D" stop-opacity="0.06"/>
    <stop offset="1" stop-color="#FF5C3D" stop-opacity="0"/>
  </radialGradient>
  <radialGradient id="fill" cx="18%" cy="82%" r="68%">
    <stop offset="0" stop-color="#1F5078" stop-opacity="0.55"/>
    <stop offset="1" stop-color="#1F5078" stop-opacity="0"/>
  </radialGradient>
  <linearGradient id="haze" x1="0" y1="1" x2="0" y2="0">
    <stop offset="0" stop-color="#10283E" stop-opacity="0.92"/>
    <stop offset="0.4" stop-color="#10283E" stop-opacity="0.32"/>
    <stop offset="1" stop-color="#10283E" stop-opacity="0"/>
  </linearGradient>
  <radialGradient id="vig" cx="50%" cy="46%" r="76%">
    <stop offset="0.45" stop-color="#10283E" stop-opacity="0"/>
    <stop offset="1" stop-color="#10283E" stop-opacity="0.82"/>
  </radialGradient>
  <!-- Motif fades toward the lower edge so overlaid type always has clean ground. -->
  <linearGradient id="motifmask" x1="0" y1="0" x2="0" y2="1">
    <stop offset="0" stop-color="#fff" stop-opacity="0.95"/>
    <stop offset="0.55" stop-color="#fff" stop-opacity="0.7"/>
    <stop offset="1" stop-color="#fff" stop-opacity="0.12"/>
  </linearGradient>
  <mask id="motif">
    <rect width="2400" height="1400" fill="url(#motifmask)"/>
  </mask>
</defs>
<rect width="2400" height="1400" fill="#163B5C"/>
<rect width="2400" height="1400" fill="url(#fill)"/>
<g mask="url(#motif)"><rect x="0" y="0" width="171.43" height="175" fill="none" stroke="#BFD0DC" stroke-opacity="0.1" stroke-width="1"/><rect x="171.43" y="0" width="171.43" height="175" fill="none" stroke="#BFD0DC" stroke-opacity="0.11" stroke-width="1"/><rect x="342.86" y="0" width="171.43" height="175" fill="none" stroke="#BFD0DC" stroke-opacity="0.05" stroke-width="1"/><rect x="514.29" y="0" width="171.43" height="175" fill="none" stroke="#BFD0DC" stroke-opacity="0.07" stroke-width="1"/><rect x="685.71" y="0" width="171.43" height="175" fill="none" stroke="#BFD0DC" stroke-opacity="0.06" stroke-width="1"/><rect x="857.14" y="0" width="171.43" height="175" fill="none" stroke="#BFD0DC" stroke-opacity="0.13" stroke-width="1"/><rect x="1028.57" y="0" width="171.43" height="175" fill="none" stroke="#BFD0DC" stroke-opacity="0.17" stroke-width="1"/><rect x="1200" y="0" width="171.43" height="175" fill="none" stroke="#BFD0DC" stroke-opacity="0.15" stroke-width="1"/><rect x="1371.43" y="0" width="171.43" height="175" fill="none" stroke="#BFD0DC" stroke-opacity="0.15" stroke-width="1"/><rect x="1542.86" y="0" width="171.43" height="175" fill="none" stroke="#BFD0DC" stroke-opacity="0.07" stroke-width="1"/><rect x="1714.29" y="0" width="171.43" height="175" fill="none" stroke="#BFD0DC" stroke-opacity="0.17" stroke-width="1"/><rect x="1714.29" y="0" width="171.43" height="175" fill="#1F5078" fill-opacity="0.25"/><rect x="1885.71" y="0" width="171.43" height="175" fill="none" stroke="#BFD0DC" stroke-opacity="0.13" stroke-width="1"/><rect x="2057.14" y="0" width="171.43" height="175" fill="none" stroke="#BFD0DC" stroke-opacity="0.16" stroke-width="1"/><rect x="2228.57" y="0" width="171.43" height="175" fill="none" stroke="#BFD0DC" stroke-opacity="0.07" stroke-width="1"/><rect x="2293.71" y="66.5" width="41.14" height="42" fill="#FF5C3D" fill-opacity="0.55"/><rect x="0" y="175" width="171.43" height="175" fill="none" stroke="#BFD0DC" stroke-opacity="0.12" stroke-width="1"/><rect x="171.43" y="175" width="171.43" height="175" fill="none" stroke="#BFD0DC" stroke-opacity="0.16" stroke-width="1"/><rect x="342.86" y="175" width="171.43" height="175" fill="none" stroke="#BFD0DC" stroke-opacity="0.11" stroke-width="1"/><rect x="514.29" y="175" width="171.43" height="175" fill="none" stroke="#BFD0DC" stroke-opacity="0.07" stroke-width="1"/><rect x="685.71" y="175" width="171.43" height="175" fill="none" stroke="#BFD0DC" stroke-opacity="0.12" stroke-width="1"/><rect x="857.14" y="175" width="171.43" height="175" fill="none" stroke="#BFD0DC" stroke-opacity="0.13" stroke-width="1"/><rect x="1028.57" y="175" width="171.43" height="175" fill="none" stroke="#BFD0DC" stroke-opacity="0.07" stroke-width="1"/><rect x="1200" y="175" width="171.43" height="175" fill="none" stroke="#BFD0DC" stroke-opacity="0.16" stroke-width="1"/><rect x="1371.43" y="175" width="171.43" height="175" fill="none" stroke="#BFD0DC" stroke-opacity="0.08" stroke-width="1"/><rect x="1542.86" y="175" width="171.43" height="175" fill="none" stroke="#BFD0DC" stroke-opacity="0.17" stroke-width="1"/><rect x="1714.29" y="175" width="171.43" height="175" fill="none" stroke="#BFD0DC" stroke-opacity="0.17" stroke-width="1"/><rect x="1885.71" y="175" width="171.43" height="175" fill="none" stroke="#BFD0DC" stroke-opacity="0.09" stroke-width="1"/><rect x="2057.14" y="175" width="171.43" height="175" fill="none" stroke="#BFD0DC" stroke-opacity="0.05" stroke-width="1"/><rect x="2228.57" y="175" width="171.43" height="175" fill="none" stroke="#BFD0DC" stroke-opacity="0.11" stroke-width="1"/><rect x="0" y="350" width="171.43" height="175" fill="none" stroke="#BFD0DC" stroke-opacity="0.13" stroke-width="1"/><rect x="171.43" y="350" width="171.43" height="175" fill="none" stroke="#BFD0DC" stroke-opacity="0.14" stroke-width="1"/><rect x="236.57" y="416.5" width="41.14" height="42" fill="#FF5C3D" fill-opacity="0.55"/><rect x="342.86" y="350" width="171.43" height="175" fill="none" stroke="#BFD0DC" stroke-opacity="0.12" stroke-width="1"/><rect x="342.86" y="350" width="171.43" height="175" fill="#1F5078" fill-opacity="0.23"/><rect x="514.29" y="350" width="171.43" height="175" fill="none" stroke="#BFD0DC" stroke-opacity="0.08" stroke-width="1"/><rect x="685.71" y="350" width="171.43" height="175" fill="none" stroke="#BFD0DC" stroke-opacity="0.16" stroke-width="1"/><rect x="857.14" y="350" width="171.43" height="175" fill="none" stroke="#BFD0DC" stroke-opacity="0.07" stroke-width="1"/><rect x="1028.57" y="350" width="171.43" height="175" fill="none" stroke="#BFD0DC" stroke-opacity="0.05" stroke-width="1"/><rect x="1200" y="350" width="171.43" height="175" fill="none" stroke="#BFD0DC" stroke-opacity="0.13" stroke-width="1"/><rect x="1371.43" y="350" width="171.43" height="175" fill="none" stroke="#BFD0DC" stroke-opacity="0.11" stroke-width="1"/><rect x="1542.86" y="350" width="171.43" height="175" fill="none" stroke="#BFD0DC" stroke-opacity="0.12" stroke-width="1"/><rect x="1714.29" y="350" width="171.43" height="175" fill="none" stroke="#BFD0DC" stroke-opacity="0.14" stroke-width="1"/><rect x="1885.71" y="350" width="171.43" height="175" fill="none" stroke="#BFD0DC" stroke-opacity="0.15" stroke-width="1"/><rect x="2057.14" y="350" width="171.43" height="175" fill="none" stroke="#BFD0DC" stroke-opacity="0.14" stroke-width="1"/><rect x="2057.14" y="350" width="171.43" height="175" fill="#1F5078" fill-opacity="0.38"/><rect x="2228.57" y="350" width="171.43" height="175" fill="none" stroke="#BFD0DC" stroke-opacity="0.06" stroke-width="1"/><rect x="0" y="525" width="171.43" height="175" fill="none" stroke="#BFD0DC" stroke-opacity="0.1" stroke-width="1"/><rect x="65.14" y="591.5" width="41.14" height="42" fill="#FF5C3D" fill-opacity="0.55"/><rect x="171.43" y="525" width="171.43" height="175" fill="none" stroke="#BFD0DC" stroke-opacity="0.07" stroke-width="1"/><rect x="342.86" y="525" width="171.43" height="175" fill="none" stroke="#BFD0DC" stroke-opacity="0.16" stroke-width="1"/><rect x="514.29" y="525" width="171.43" height="175" fill="none" stroke="#BFD0DC" stroke-opacity="0.14" stroke-width="1"/><rect x="685.71" y="525" width="171.43" height="175" fill="none" stroke="#BFD0DC" stroke-opacity="0.07" stroke-width="1"/><rect x="685.71" y="525" width="171.43" height="175" fill="#1F5078" fill-opacity="0.25"/><rect x="857.14" y="525" width="171.43" height="175" fill="none" stroke="#BFD0DC" stroke-opacity="0.07" stroke-width="1"/><rect x="1028.57" y="525" width="171.43" height="175" fill="none" stroke="#BFD0DC" stroke-opacity="0.14" stroke-width="1"/><rect x="1200" y="525" width="171.43" height="175" fill="none" stroke="#BFD0DC" stroke-opacity="0.06" stroke-width="1"/><rect x="1371.43" y="525" width="171.43" height="175" fill="none" stroke="#BFD0DC" stroke-opacity="0.13" stroke-width="1"/><rect x="1542.86" y="525" width="171.43" height="175" fill="none" stroke="#BFD0DC" stroke-opacity="0.07" stroke-width="1"/><rect x="1714.29" y="525" width="171.43" height="175" fill="none" stroke="#BFD0DC" stroke-opacity="0.08" stroke-width="1"/><rect x="1885.71" y="525" width="171.43" height="175" fill="none" stroke="#BFD0DC" stroke-opacity="0.15" stroke-width="1"/><rect x="2057.14" y="525" width="171.43" height="175" fill="none" stroke="#BFD0DC" stroke-opacity="0.16" stroke-width="1"/><rect x="2228.57" y="525" width="171.43" height="175" fill="none" stroke="#BFD0DC" stroke-opacity="0.1" stroke-width="1"/><rect x="0" y="700" width="171.43" height="175" fill="none" stroke="#BFD0DC" stroke-opacity="0.07" stroke-width="1"/><rect x="171.43" y="700" width="171.43" height="175" fill="none" stroke="#BFD0DC" stroke-opacity="0.13" stroke-width="1"/><rect x="342.86" y="700" width="171.43" height="175" fill="none" stroke="#BFD0DC" stroke-opacity="0.15" stroke-width="1"/><rect x="514.29" y="700" width="171.43" height="175" fill="none" stroke="#BFD0DC" stroke-opacity="0.11" stroke-width="1"/><rect x="514.29" y="700" width="171.43" height="175" fill="#1F5078" fill-opacity="0.4"/><rect x="685.71" y="700" width="171.43" height="175" fill="none" stroke="#BFD0DC" stroke-opacity="0.1" stroke-width="1"/><rect x="750.86" y="766.5" width="41.14" height="42" fill="#FF5C3D" fill-opacity="0.55"/><rect x="857.14" y="700" width="171.43" height="175" fill="none" stroke="#BFD0DC" stroke-opacity="0.05" stroke-width="1"/><rect x="857.14" y="700" width="171.43" height="175" fill="#1F5078" fill-opacity="0.39"/><rect x="1028.57" y="700" width="171.43" height="175" fill="none" stroke="#BFD0DC" stroke-opacity="0.07" stroke-width="1"/><rect x="1200" y="700" width="171.43" height="175" fill="none" stroke="#BFD0DC" stroke-opacity="0.1" stroke-width="1"/><rect x="1371.43" y="700" width="171.43" height="175" fill="none" stroke="#BFD0DC" stroke-opacity="0.12" stroke-width="1"/><rect x="1542.86" y="700" width="171.43" height="175" fill="none" stroke="#BFD0DC" stroke-opacity="0.16" stroke-width="1"/><rect x="1714.29" y="700" width="171.43" height="175" fill="none" stroke="#BFD0DC" stroke-opacity="0.13" stroke-width="1"/><rect x="1885.71" y="700" width="171.43" height="175" fill="none" stroke="#BFD0DC" stroke-opacity="0.14" stroke-width="1"/><rect x="2057.14" y="700" width="171.43" height="175" fill="none" stroke="#BFD0DC" stroke-opacity="0.07" stroke-width="1"/><rect x="2228.57" y="700" width="171.43" height="175" fill="none" stroke="#BFD0DC" stroke-opacity="0.08" stroke-width="1"/><rect x="0" y="875" width="171.43" height="175" fill="none" stroke="#BFD0DC" stroke-opacity="0.08" stroke-width="1"/><rect x="171.43" y="875" width="171.43" height="175" fill="none" stroke="#BFD0DC" stroke-opacity="0.07" stroke-width="1"/><rect x="342.86" y="875" width="171.43" height="175" fill="none" stroke="#BFD0DC" stroke-opacity="0.15" stroke-width="1"/><rect x="514.29" y="875" width="171.43" height="175" fill="none" stroke="#BFD0DC" stroke-opacity="0.06" stroke-width="1"/><rect x="685.71" y="875" width="171.43" height="175" fill="none" stroke="#BFD0DC" stroke-opacity="0.09" stroke-width="1"/><rect x="685.71" y="875" width="171.43" height="175" fill="#1F5078" fill-opacity="0.62"/><rect x="857.14" y="875" width="171.43" height="175" fill="none" stroke="#BFD0DC" stroke-opacity="0.13" stroke-width="1"/><rect x="1028.57" y="875" width="171.43" height="175" fill="none" stroke="#BFD0DC" stroke-opacity="0.09" stroke-width="1"/><rect x="1028.57" y="875" width="171.43" height="175" fill="#1F5078" fill-opacity="0.65"/><rect x="1200" y="875" width="171.43" height="175" fill="none" stroke="#BFD0DC" stroke-opacity="0.06" stroke-width="1"/><rect x="1371.43" y="875" width="171.43" height="175" fill="none" stroke="#BFD0DC" stroke-opacity="0.07" stroke-width="1"/><rect x="1542.86" y="875" width="171.43" height="175" fill="none" stroke="#BFD0DC" stroke-opacity="0.16" stroke-width="1"/><rect x="1714.29" y="875" width="171.43" height="175" fill="none" stroke="#BFD0DC" stroke-opacity="0.08" stroke-width="1"/><rect x="1885.71" y="875" width="171.43" height="175" fill="none" stroke="#BFD0DC" stroke-opacity="0.1" stroke-width="1"/><rect x="1885.71" y="875" width="171.43" height="175" fill="#1F5078" fill-opacity="0.69"/><rect x="2057.14" y="875" width="171.43" height="175" fill="none" stroke="#BFD0DC" stroke-opacity="0.15" stroke-width="1"/><rect x="2228.57" y="875" width="171.43" height="175" fill="none" stroke="#BFD0DC" stroke-opacity="0.05" stroke-width="1"/><rect x="0" y="1050" width="171.43" height="175" fill="none" stroke="#BFD0DC" stroke-opacity="0.16" stroke-width="1"/><rect x="0" y="1050" width="171.43" height="175" fill="#1F5078" fill-opacity="0.56"/><rect x="171.43" y="1050" width="171.43" height="175" fill="none" stroke="#BFD0DC" stroke-opacity="0.11" stroke-width="1"/><rect x="171.43" y="1050" width="171.43" height="175" fill="#1F5078" fill-opacity="0.45"/><rect x="342.86" y="1050" width="171.43" height="175" fill="none" stroke="#BFD0DC" stroke-opacity="0.09" stroke-width="1"/><rect x="514.29" y="1050" width="171.43" height="175" fill="none" stroke="#BFD0DC" stroke-opacity="0.09" stroke-width="1"/><rect x="685.71" y="1050" width="171.43" height="175" fill="none" stroke="#BFD0DC" stroke-opacity="0.05" stroke-width="1"/><rect x="857.14" y="1050" width="171.43" height="175" fill="none" stroke="#BFD0DC" stroke-opacity="0.12" stroke-width="1"/><rect x="1028.57" y="1050" width="171.43" height="175" fill="none" stroke="#BFD0DC" stroke-opacity="0.1" stroke-width="1"/><rect x="1200" y="1050" width="171.43" height="175" fill="none" stroke="#BFD0DC" stroke-opacity="0.15" stroke-width="1"/><rect x="1371.43" y="1050" width="171.43" height="175" fill="none" stroke="#BFD0DC" stroke-opacity="0.15" stroke-width="1"/><rect x="1542.86" y="1050" width="171.43" height="175" fill="none" stroke="#BFD0DC" stroke-opacity="0.16" stroke-width="1"/><rect x="1542.86" y="1050" width="171.43" height="175" fill="#1F5078" fill-opacity="0.54"/><rect x="1714.29" y="1050" width="171.43" height="175" fill="none" stroke="#BFD0DC" stroke-opacity="0.13" stroke-width="1"/><rect x="1885.71" y="1050" width="171.43" height="175" fill="none" stroke="#BFD0DC" stroke-opacity="0.06" stroke-width="1"/><rect x="2057.14" y="1050" width="171.43" height="175" fill="none" stroke="#BFD0DC" stroke-opacity="0.11" stroke-width="1"/><rect x="2228.57" y="1050" width="171.43" height="175" fill="none" stroke="#BFD0DC" stroke-opacity="0.15" stroke-width="1"/><rect x="0" y="1225" width="171.43" height="175" fill="none" stroke="#BFD0DC" stroke-opacity="0.16" stroke-width="1"/><rect x="171.43" y="1225" width="171.43" height="175" fill="none" stroke="#BFD0DC" stroke-opacity="0.14" stroke-width="1"/><rect x="342.86" y="1225" width="171.43" height="175" fill="none" stroke="#BFD0DC" stroke-opacity="0.15" stroke-width="1"/><rect x="514.29" y="1225" width="171.43" height="175" fill="none" stroke="#BFD0DC" stroke-opacity="0.13" stroke-width="1"/><rect x="685.71" y="1225" width="171.43" height="175" fill="none" stroke="#BFD0DC" stroke-opacity="0.16" stroke-width="1"/><rect x="857.14" y="1225" width="171.43" height="175" fill="none" stroke="#BFD0DC" stroke-opacity="0.09" stroke-width="1"/><rect x="1028.57" y="1225" width="171.43" height="175" fill="none" stroke="#BFD0DC" stroke-opacity="0.15" stroke-width="1"/><rect x="1200" y="1225" width="171.43" height="175" fill="none" stroke="#BFD0DC" stroke-opacity="0.08" stroke-width="1"/><rect x="1371.43" y="1225" width="171.43" height="175" fill="none" stroke="#BFD0DC" stroke-opacity="0.1" stroke-width="1"/><rect x="1371.43" y="1225" width="171.43" height="175" fill="#1F5078" fill-opacity="0.37"/><rect x="1542.86" y="1225" width="171.43" height="175" fill="none" stroke="#BFD0DC" stroke-opacity="0.15" stroke-width="1"/><rect x="1714.29" y="1225" width="171.43" height="175" fill="none" stroke="#BFD0DC" stroke-opacity="0.1" stroke-width="1"/><rect x="1885.71" y="1225" width="171.43" height="175" fill="none" stroke="#BFD0DC" stroke-opacity="0.06" stroke-width="1"/><rect x="2057.14" y="1225" width="171.43" height="175" fill="none" stroke="#BFD0DC" stroke-opacity="0.05" stroke-width="1"/><rect x="2228.57" y="1225" width="171.43" height="175" fill="none" stroke="#BFD0DC" stroke-opacity="0.06" stroke-width="1"/></g>
<rect width="2400" height="1400" fill="url(#key)"/>
<rect width="2400" height="1400" fill="url(#haze)"/>
<rect width="2400" height="1400" fill="url(#vig)"/>
<path d="M49 75.95V49H75.95" fill="none" stroke="#BFD0DC" stroke-opacity="0.28" stroke-width="1.5"/><path d="M2324.05 49H2351V75.95" fill="none" stroke="#BFD0DC" stroke-opacity="0.28" stroke-width="1.5"/><path d="M2351 1324.05V1351H2324.05" fill="none" stroke="#BFD0DC" stroke-opacity="0.28" stroke-width="1.5"/><path d="M75.95 1351H49V1324.05" fill="none" stroke="#BFD0DC" stroke-opacity="0.28" stroke-width="1.5"/>
</svg>